<?xml version="1.0" encoding="utf-8"?>
<!DOCTYPE svg PUBLIC "-//W3C//DTD SVG 20010904//EN" "http://www.w3.org/TR/2001/REC-SVG-20010904/DTD/svg10.dtd">
<svg version="1.0" xmlns="http://www.w3.org/2000/svg" width="514pt" height="514pt" viewBox="0 0 514 514" preserveAspectRatio="xMidYMid meet">
<g fill="#EFDD64FF">
<path d="M 153.25 314.18 L 151.00 313.86 L 151.00 220.93 L 151.00 128.00 L 182.00 128.00 L 213.00 128.00 L 213.00 194.50 L 213.00 261.00 L 225.43 261.00 C 239.95 261.00 239.28 261.59 238.97 249.21 C 238.67 236.99 238.04 238.00 246.00 238.00 L 253.00 238.00 L 253.00 234.09 L 253.00 230.18 L 244.38 229.46 C 239.64 229.07 231.58 229.05 226.47 229.43 C 221.07 229.82 216.95 229.72 216.61 229.19 C 216.30 228.68 219.09 222.92 222.82 216.38 L 229.59 204.50 L 246.55 204.25 L 263.50 204.00 L 271.75 211.59 L 280.00 219.17 L 280.00 230.86 C 280.00 242.48 279.98 242.57 276.87 246.34 L 273.74 250.14 L 277.37 253.86 C 279.37 255.91 281.00 258.35 281.00 259.29 C 281.00 260.53 281.84 261.00 284.02 261.00 L 287.03 261.00 L 286.77 287.48 L 286.50 313.97 L 221.00 314.23 C 184.97 314.38 154.49 314.36 153.25 314.18ZM 283.00 312.27 C 283.00 311.86 278.17 306.69 272.27 300.77 L 261.53 290.00 L 222.76 290.00 L 183.99 290.00 L 169.55 300.75 C 161.60 306.66 155.08 311.84 155.05 312.25 C 155.02 312.66 183.80 313.00 219.00 313.00 C 254.20 313.00 283.00 312.67 283.00 312.27ZM 175.25 294.54 L 183.00 288.76 L 183.00 221.46 L 183.00 154.15 L 168.00 142.60 L 153.00 131.05 L 153.00 221.06 L 153.00 311.08 L 160.25 305.70 C 164.24 302.74 170.99 297.72 175.25 294.54ZM 285.00 287.92 C 285.00 275.76 284.61 265.98 284.13 266.17 C 283.65 266.35 278.73 271.45 273.20 277.50 L 263.14 288.50 L 273.80 299.25 C 279.67 305.16 284.59 310.00 284.73 310.00 C 284.88 310.00 285.00 300.06 285.00 287.92ZM 270.46 277.82 C 275.39 272.27 280.26 266.66 281.29 265.36 L 283.15 263.00 L 247.82 263.04 L 212.50 263.08 L 199.50 275.51 L 186.50 287.93 L 224.00 287.92 L 261.50 287.90 L 270.46 277.82ZM 198.90 273.25 L 211.10 261.50 L 210.80 196.71 L 210.50 131.92 L 197.75 143.53 L 185.00 155.13 L 185.00 220.07 C 185.00 255.78 185.38 285.00 185.85 285.00 C 186.32 285.00 192.20 279.71 198.90 273.25ZM 279.36 260.31 C 279.74 259.93 277.92 257.46 275.32 254.81 L 270.58 250.01 L 274.29 246.21 L 278.00 242.42 L 278.00 231.39 C 278.00 220.50 277.97 220.34 275.05 217.55 L 272.11 214.73 L 269.28 217.12 C 254.49 229.56 255.00 228.93 255.00 234.75 C 255.00 239.27 254.72 240.10 253.25 239.95 C 252.29 239.85 248.90 239.82 245.71 239.88 L 239.93 240.00 L 240.21 249.75 L 240.50 259.50 L 248.00 260.07 C 259.45 260.94 278.58 261.09 279.36 260.31ZM 262.50 220.53 L 270.50 213.14 L 267.05 209.57 L 263.61 206.00 L 247.05 206.02 L 230.50 206.04 L 225.00 216.14 C 221.97 221.70 219.35 226.64 219.17 227.12 C 218.98 227.61 226.83 227.98 236.67 227.96 L 254.50 227.92 L 262.50 220.53ZM 204.82 134.29 L 209.50 130.08 L 189.00 129.99 C 177.72 129.93 165.69 129.74 162.25 129.55 C 158.81 129.37 156.00 129.59 156.00 130.04 C 156.00 130.50 162.39 135.82 170.19 141.87 L 184.38 152.87 L 192.26 145.69 C 196.59 141.73 202.24 136.60 204.82 134.29Z"/></g>
<g fill="#EFDD64FF">
<path d="M 290.78 307.75 C 290.16 297.97 290.11 214.00 290.72 209.25 L 291.27 205.00 L 316.87 205.00 L 342.47 205.00 L 355.74 218.24 L 369.00 231.47 L 369.00 259.50 L 369.00 287.53 L 355.74 300.76 L 342.47 314.00 L 316.83 314.00 L 291.18 314.00 L 290.78 307.75ZM 353.84 299.75 L 367.00 286.50 L 367.00 259.51 L 367.00 232.53 L 354.26 219.76 L 341.53 207.00 L 318.03 207.00 L 294.53 207.00 L 305.50 218.00 L 316.47 229.00 L 323.46 229.00 L 330.45 229.00 L 337.22 235.72 L 344.00 242.45 L 344.00 258.95 L 344.00 275.45 L 337.28 282.22 L 330.55 289.00 L 323.90 289.00 L 317.25 289.00 L 305.83 300.53 C 299.54 306.88 294.61 312.28 294.87 312.53 C 295.12 312.79 305.54 313.00 318.01 313.00 L 340.68 313.00 L 353.84 299.75ZM 304.73 298.77 L 316.00 287.53 L 316.00 259.14 L 316.00 230.74 L 304.86 220.12 C 298.74 214.28 293.34 209.35 292.86 209.17 C 292.39 208.98 292.00 231.38 292.00 259.42 C 292.00 287.24 292.33 310.00 292.73 310.00 C 293.14 310.00 298.54 304.94 304.73 298.77ZM 335.72 280.78 L 342.00 274.56 L 342.00 258.40 L 342.00 242.24 L 335.60 236.62 C 329.45 231.23 328.97 231.00 323.60 231.00 L 318.00 231.00 L 318.00 259.00 L 318.00 287.00 L 323.72 287.00 C 329.40 287.00 329.50 286.95 335.72 280.78Z"/></g>
<g fill="#A5933FFF">
<path d="M 213.67 260.33 C 213.30 259.97 213.00 230.04 213.00 193.83 L 213.00 128.00 L 181.75 127.76 L 150.50 127.53 L 181.44 127.25 C 198.45 127.10 212.72 127.32 213.15 127.75 C 213.59 128.19 213.99 146.30 214.06 168.02 C 214.13 189.73 214.54 209.30 214.98 211.50 C 215.41 213.70 215.82 214.94 215.89 214.25 C 215.95 213.56 216.50 213.00 217.12 213.00 C 217.73 213.00 218.00 213.88 217.72 214.96 C 217.00 217.71 219.72 219.90 220.69 217.36 C 221.08 216.34 222.28 214.60 223.35 213.50 C 225.62 211.16 225.57 211.27 220.09 220.76 C 217.78 224.76 216.17 228.47 216.51 229.01 C 216.87 229.60 224.33 230.00 235.06 230.00 L 253.00 230.00 L 253.00 233.96 L 253.00 237.91 L 245.75 238.21 L 238.50 238.50 L 238.22 249.75 L 237.93 261.00 L 226.13 261.00 C 219.64 261.00 214.03 260.70 213.67 260.33Z"/></g>
<g fill="#706D5FFF">
<path d="M 364.50 231.00 C 363.13 229.49 362.37 229.28 361.36 230.12 C 359.86 231.36 356.57 230.51 357.44 229.10 C 357.75 228.60 357.07 228.43 355.94 228.73 C 354.54 229.09 353.39 228.57 352.37 227.12 C 351.54 225.93 350.44 225.23 349.93 225.54 C 349.42 225.86 349.00 225.60 349.00 224.98 C 349.00 224.35 348.44 224.03 347.75 224.27 C 347.06 224.51 345.38 224.29 344.00 223.77 C 339.86 222.20 337.88 222.00 338.64 223.22 C 339.11 223.99 338.74 224.08 337.41 223.51 C 336.36 223.05 334.54 222.63 333.38 222.59 C 332.11 222.53 331.45 222.00 331.73 221.25 C 332.00 220.56 331.60 219.93 330.86 219.85 C 330.11 219.76 328.82 219.63 328.00 219.55 C 327.18 219.47 326.58 218.96 326.68 218.42 C 326.78 217.87 325.74 217.33 324.38 217.22 C 323.01 217.11 321.05 216.56 320.01 216.01 C 318.98 215.45 316.47 215.00 314.44 215.00 C 311.12 215.00 310.89 215.17 312.13 216.66 C 313.38 218.18 313.31 218.20 311.25 216.92 C 310.01 216.15 309.00 214.95 309.00 214.26 C 309.00 213.57 308.52 213.00 307.94 213.00 C 307.36 213.00 307.19 212.50 307.57 211.89 C 307.95 211.28 307.64 210.33 306.88 209.79 C 305.77 209.00 305.81 208.91 307.09 209.31 C 307.97 209.59 309.32 209.41 310.09 208.92 C 311.01 208.34 309.33 208.03 305.31 208.02 C 299.55 208.00 297.17 208.84 298.69 210.35 C 299.03 210.70 300.03 210.45 300.91 209.79 C 302.24 208.79 302.30 208.82 301.25 210.00 C 300.24 211.14 300.51 211.96 302.74 214.45 C 304.25 216.13 303.35 215.49 300.74 213.04 C 298.13 210.59 296.00 208.23 296.00 207.79 C 296.00 207.36 306.12 207.00 318.50 207.00 C 333.67 207.00 341.00 207.35 341.00 208.06 C 341.00 208.64 341.34 208.95 341.75 208.74 C 342.16 208.53 348.12 213.89 355.00 220.65 C 361.88 227.40 367.23 232.94 366.90 232.96 C 366.58 232.98 365.50 232.10 364.50 231.00Z"/></g>
<g fill="#706D5FFF">
<path d="M 183.34 151.26 C 183.69 150.69 182.81 149.45 181.37 148.51 C 179.58 147.33 178.97 147.22 179.45 148.15 C 179.84 148.89 179.26 148.49 178.17 147.25 C 177.07 146.01 175.70 145.00 175.11 145.00 C 174.53 145.00 173.37 143.96 172.54 142.70 C 170.95 140.28 164.12 134.77 165.53 137.05 C 165.98 137.77 164.73 137.13 162.76 135.63 C 155.43 130.04 155.57 130.00 183.28 130.03 L 208.50 130.05 L 198.03 139.88 C 190.31 147.12 187.05 149.56 185.62 149.19 C 184.39 148.87 183.93 149.08 184.36 149.77 C 184.73 150.37 184.51 151.19 183.86 151.59 C 183.17 152.01 182.96 151.88 183.34 151.26Z"/></g>
<g fill="#706D5FFF">
<path d="M 210.23 170.19 C 210.10 167.12 209.60 165.13 209.04 165.47 C 208.52 165.80 208.34 166.84 208.65 167.78 C 208.96 168.73 208.00 168.03 206.52 166.23 C 203.54 162.61 198.48 159.59 196.97 160.52 C 196.44 160.85 196.00 160.57 196.00 159.90 C 196.00 159.07 195.45 159.17 194.25 160.21 C 193.29 161.05 191.94 161.54 191.25 161.29 C 190.56 161.04 190.00 161.32 190.00 161.92 C 190.00 163.66 188.18 163.16 187.61 161.25 C 186.06 156.12 186.22 154.12 188.31 152.33 C 190.43 150.53 190.44 150.54 189.00 152.50 C 187.58 154.44 187.59 154.45 189.60 152.75 C 190.73 151.79 192.18 151.00 192.83 151.00 C 193.88 151.00 194.41 149.71 194.14 147.81 C 194.08 147.43 195.43 146.08 197.13 144.81 C 198.82 143.54 202.38 140.26 205.04 137.52 C 207.70 134.78 210.13 132.80 210.45 133.12 C 210.78 133.44 210.91 143.11 210.75 154.60 C 210.59 166.10 210.35 173.11 210.23 170.19Z"/></g>
<g fill="#A5933FFF">
<path d="M 286.78 287.91 L 287.06 261.00 L 284.03 261.00 C 281.84 261.00 281.00 260.53 281.00 259.29 C 281.00 258.35 279.34 255.88 277.30 253.80 L 273.60 250.01 L 276.80 246.71 L 280.00 243.40 L 280.00 231.52 C 280.00 220.62 279.81 219.42 277.75 217.06 L 275.50 214.50 L 278.25 216.92 C 280.75 219.13 281.00 219.98 281.00 226.24 C 281.00 232.20 281.24 233.10 282.75 232.95 C 285.83 232.63 287.13 232.97 286.54 233.93 C 286.23 234.44 286.43 235.15 287.00 235.50 C 287.57 235.85 287.83 236.47 287.58 236.87 C 287.33 237.27 287.48 238.17 287.91 238.86 C 288.35 239.57 288.78 237.36 288.88 233.86 C 288.99 230.41 289.28 227.39 289.54 227.13 C 289.79 226.88 289.92 244.18 289.83 265.58 C 289.74 286.99 289.37 301.80 289.00 298.50 C 288.42 293.23 288.32 293.79 288.17 303.19 C 288.08 309.07 287.66 314.09 287.25 314.35 C 286.84 314.60 286.63 302.70 286.78 287.91Z"/></g>
<g fill="#EFDD64FF">
<path d="M 103.23 356.78 L 103.50 338.50 L 107.50 338.50 L 111.50 338.50 L 111.78 352.71 L 112.05 366.92 L 119.78 367.21 L 127.50 367.50 L 127.50 371.00 L 127.50 374.50 L 115.23 374.78 L 102.95 375.06 L 103.23 356.78ZM 127.00 371.04 L 127.00 368.08 L 119.25 367.79 L 111.50 367.50 L 111.22 353.25 L 110.95 339.00 L 107.47 339.00 L 104.00 339.00 L 104.00 356.50 L 104.00 374.00 L 115.50 374.00 L 127.00 374.00 L 127.00 371.04Z"/></g>
<g fill="#FAFAFAFF">
<path d="M 263.56 367.78 C 259.89 362.55 263.32 354.00 269.07 354.00 C 273.19 354.00 276.00 357.15 276.00 361.78 C 276.00 367.34 273.73 370.00 269.00 370.00 C 266.12 370.00 264.71 369.43 263.56 367.78ZM 271.94 366.57 C 273.64 364.52 272.86 357.92 270.75 356.61 C 268.03 354.91 265.56 357.05 265.19 361.42 C 264.84 365.51 266.29 368.00 269.00 368.00 C 269.97 368.00 271.29 367.36 271.94 366.57Z"/></g>
<g fill="#FAFAFAFF">
<path d="M 400.00 362.00 L 400.00 354.00 L 403.57 354.00 C 407.23 354.00 410.94 355.45 412.23 357.40 C 412.64 358.00 412.98 360.19 412.98 362.25 C 413.01 367.50 410.27 370.00 404.50 370.00 L 400.00 370.00 L 400.00 362.00ZM 408.80 366.80 C 410.79 364.81 410.30 358.23 408.07 357.04 C 403.85 354.78 403.00 355.62 403.00 362.00 C 403.00 367.59 403.16 368.00 405.30 368.00 C 406.56 368.00 408.14 367.46 408.80 366.80Z"/></g>
<g fill="#FAFAFAFF">
<path d="M 364.65 368.17 C 362.27 365.54 362.47 358.53 365.00 356.00 C 367.49 353.51 372.16 353.41 374.33 355.82 C 377.70 359.54 377.31 366.76 373.60 369.23 C 371.52 370.63 366.32 370.01 364.65 368.17ZM 373.38 364.89 C 375.55 358.68 370.52 353.40 366.81 357.98 C 364.74 360.55 364.60 361.82 366.00 365.50 C 367.37 369.09 372.04 368.71 373.38 364.89Z"/></g>
<g fill="#FAFAFAFF">
<path d="M 326.40 369.23 C 324.16 367.74 322.82 363.75 323.45 360.42 C 324.56 354.51 331.03 352.03 335.00 356.00 C 337.66 358.66 337.76 366.00 335.17 368.35 C 333.29 370.04 328.36 370.54 326.40 369.23ZM 332.85 367.12 C 334.61 366.00 334.76 359.62 333.07 357.59 C 329.10 352.80 323.87 360.14 327.04 366.07 C 328.13 368.10 330.59 368.55 332.85 367.12Z"/></g>
<g fill="#A5933FFF">
<path d="M 150.48 221.50 C 150.48 170.35 150.60 149.57 150.75 175.33 C 150.90 201.08 150.90 242.93 150.75 268.33 C 150.60 293.72 150.48 272.65 150.48 221.50Z"/></g>
<g fill="#FAFAFAFF">
<path d="M 247.00 362.00 L 247.00 354.00 L 251.07 354.00 C 257.94 354.00 261.15 357.32 257.75 360.92 C 256.75 361.99 256.75 362.34 257.75 362.71 C 259.34 363.29 259.37 367.23 257.80 368.80 C 257.14 369.46 254.44 370.00 251.80 370.00 L 247.00 370.00 L 247.00 362.00Z"/></g>
<g fill="#9D9D9CFF">
<path d="M 482.78 491.96 C 481.83 490.30 479.70 488.17 478.04 487.22 C 476.37 486.27 475.01 485.27 475.01 485.00 C 475.01 484.73 476.36 483.73 478.02 482.79 C 479.67 481.85 481.97 479.48 483.12 477.52 L 485.23 473.95 L 486.86 477.22 C 487.76 479.02 489.95 481.39 491.71 482.49 C 493.48 483.60 494.94 484.73 494.96 485.00 C 494.97 485.27 493.63 486.27 491.96 487.22 C 490.30 488.17 488.17 490.30 487.22 491.96 C 486.27 493.63 485.27 494.99 485.00 494.99 C 484.73 494.99 483.73 493.63 482.78 491.96Z"/></g>
<g fill="#FAFAFAFF">
<path d="M 279.00 362.00 L 279.00 354.00 L 283.98 354.00 C 288.16 354.00 289.21 354.39 290.56 356.45 C 292.05 358.72 292.04 359.13 290.42 361.87 C 288.77 364.66 288.76 364.99 290.36 367.42 C 291.97 369.88 291.96 370.00 290.14 370.00 C 288.97 370.00 287.76 368.85 287.00 367.00 C 286.24 365.17 285.02 364.00 283.88 364.00 C 282.46 364.00 282.00 364.73 282.00 367.00 C 282.00 369.00 281.50 370.00 280.50 370.00 C 279.29 370.00 279.00 368.44 279.00 362.00Z"/></g>
<g fill="#FAFAFAFF">
<path d="M 341.00 362.00 L 341.00 354.00 L 345.35 354.00 C 351.83 354.00 354.97 358.17 351.43 362.08 C 350.00 363.66 350.00 364.10 351.45 366.91 C 352.83 369.57 352.85 370.00 351.58 370.00 C 350.77 370.00 349.31 368.64 348.32 366.97 C 346.18 363.33 343.62 363.48 343.18 367.26 C 343.01 368.77 342.45 370.00 341.93 370.00 C 341.42 370.00 341.00 366.40 341.00 362.00Z"/></g>
<g fill="#A5933FFF">
<path d="M 155.00 312.25 C 155.00 311.57 200.85 311.58 260.50 312.27 C 273.15 312.42 254.59 312.64 219.25 312.77 C 183.91 312.90 155.00 312.66 155.00 312.25Z"/></g>
<g fill="#A5933FFF">
<path d="M 185.47 222.50 C 185.47 187.85 185.60 173.82 185.75 191.32 C 185.90 208.82 185.90 237.17 185.75 254.32 C 185.60 271.47 185.47 257.15 185.47 222.50Z"/></g>
<g fill="#FAFAFAFF">
<path d="M 294.43 368.22 C 296.71 361.03 299.87 354.46 301.15 354.21 C 302.25 354.00 303.57 356.23 305.74 361.96 C 308.59 369.45 308.67 370.00 306.90 370.00 C 305.85 370.00 305.00 369.32 305.00 368.50 C 305.00 367.45 303.94 367.00 301.47 367.00 C 299.25 367.00 297.72 367.56 297.36 368.50 C 296.52 370.69 293.73 370.43 294.43 368.22Z"/></g>
<g fill="#FAFAFAFF">
<path d="M 230.00 369.41 C 230.00 369.08 231.18 365.48 232.63 361.41 C 234.53 356.04 235.74 354.00 237.00 354.00 C 238.26 354.00 239.47 356.04 241.37 361.41 C 244.45 370.09 244.44 370.00 242.50 370.00 C 241.68 370.00 241.00 369.38 241.00 368.62 C 241.00 367.15 237.68 366.18 234.75 366.78 C 233.79 366.98 233.00 367.79 233.00 368.57 C 233.00 369.36 232.32 370.00 231.50 370.00 C 230.68 370.00 230.00 369.73 230.00 369.41Z"/></g>
<g fill="#706D5FFF">
<path d="M 218.34 217.77 C 217.91 217.07 217.68 215.71 217.84 214.75 C 218.17 212.75 216.43 212.36 215.66 214.25 C 215.38 214.94 215.07 212.24 214.95 208.25 C 214.59 195.20 214.82 193.24 216.18 198.00 C 217.32 202.02 219.68 205.00 221.71 205.00 C 222.49 205.00 222.84 205.45 222.50 206.01 C 222.15 206.56 222.58 207.28 223.44 207.61 C 225.59 208.44 225.39 211.20 223.00 213.77 C 221.90 214.95 221.00 216.36 221.00 216.90 C 221.00 218.53 219.19 219.12 218.34 217.77Z"/></g>
<g fill="#A5933FFF">
<path d="M 292.24 259.75 C 292.10 231.12 292.38 209.00 292.88 209.00 C 293.36 209.00 294.37 209.79 295.13 210.75 C 296.37 212.33 296.33 212.37 294.76 211.14 C 293.11 209.84 293.00 212.44 292.75 260.14 L 292.48 310.50 L 292.24 259.75Z"/></g>
<g fill="#CDBC57FF">
<path d="M 192.82 314.25 C 206.75 314.09 229.25 314.09 242.82 314.25 C 256.39 314.41 245.00 314.54 217.50 314.54 C 190.00 314.54 178.89 314.41 192.82 314.25Z"/></g>
<g fill="#706D5FFF">
<path d="M 270.20 274.80 C 269.54 274.14 269.01 273.13 269.02 272.55 C 269.02 271.97 269.47 272.18 270.00 273.00 C 270.67 274.04 270.97 274.11 270.98 273.23 C 270.99 272.52 269.86 271.52 268.47 270.99 C 267.09 270.46 264.95 269.06 263.72 267.88 L 261.50 265.73 L 263.70 266.26 C 264.91 266.55 266.04 266.43 266.20 266.00 C 266.37 265.56 269.96 265.04 274.19 264.84 C 281.50 264.49 281.81 264.56 280.28 266.24 C 279.40 267.21 278.47 267.80 278.21 267.54 C 277.68 267.02 273.50 272.03 273.50 273.18 C 273.50 274.93 271.38 275.98 270.20 274.80Z"/></g>
<g fill="#FAFAFAFF">
<path d="M 387.25 369.36 C 386.56 369.07 386.00 368.20 386.00 367.42 C 386.00 365.70 386.48 365.66 388.88 367.16 C 389.90 367.79 391.47 368.03 392.37 367.69 C 394.90 366.72 394.29 364.07 391.25 362.83 L 388.50 361.72 L 391.00 361.06 C 394.25 360.21 394.44 356.63 391.25 356.18 C 390.01 356.00 389.00 356.34 389.00 356.93 C 389.00 357.52 388.32 358.00 387.50 358.00 C 385.69 358.00 385.57 356.83 387.20 355.20 C 388.90 353.50 393.57 353.71 395.43 355.57 C 397.29 357.43 397.30 357.57 395.98 360.04 C 395.25 361.41 395.32 362.54 396.22 363.98 C 398.05 366.91 396.13 369.45 391.90 369.69 C 390.03 369.80 387.94 369.65 387.25 369.36Z"/></g>
<g fill="#A5933FFF">
<path d="M 206.32 287.25 C 216.66 287.09 233.31 287.09 243.32 287.25 C 253.32 287.41 244.85 287.55 224.50 287.55 C 204.15 287.55 195.97 287.41 206.32 287.25Z"/></g>
<g fill="#FAFAFAFF">
<path d="M 313.00 363.00 C 313.00 356.20 312.93 356.00 310.50 356.00 C 309.12 356.00 308.00 355.55 308.00 355.00 C 308.00 354.43 311.00 354.00 315.00 354.00 C 319.00 354.00 322.00 354.43 322.00 355.00 C 322.00 355.55 320.65 356.00 319.00 356.00 L 316.00 356.00 L 316.00 363.00 C 316.00 368.56 315.69 370.00 314.50 370.00 C 313.31 370.00 313.00 368.56 313.00 363.00Z"/></g>
</svg>
